<svg height="512pt" viewBox="0 -32 512 512" width="512pt" xmlns="http://www.w3.org/2000/svg"><path d="m224.847656 405.488281-55.054687-110.128906-36.945313 24.640625h-36.847656v-32h27.152344l59.054687-39.359375 40.945313 81.871094 65.121094-146.511719 54.863281 128.015625 36.015625-24.015625h36.847656v32h-27.152344l-59.984375 39.984375-41.136719-95.984375zm0 0" fill="#b3e5fc"/><path d="m448 208h-32v-16c0-88.367188-71.632812-160-160-160s-160 71.632812-160 160v16h-32v-16c0-106.039062 85.960938-192 192-192s192 85.960938 192 192zm0 0" fill="#b0bec5"/><path d="m128 448h-48c-44.160156-.054688-79.9453125-35.839844-80-80v-96c.0546875-44.160156 35.839844-79.945312 80-80h48zm0 0" fill="#57565c"/><path d="m432 448h-48v-256h48c44.160156.054688 79.945312 35.839844 80 80v96c-.054688 44.160156-35.839844 79.945312-80 80zm0 0" fill="#57565c"/><path d="m0 304v64c.0546875 44.160156 35.839844 79.945312 80 80h48v-64h-48c-44.160156-.054688-79.9453125-35.839844-80-80zm0 0" fill="#2d2d30"/><path d="m432 384h-48v64h48c44.160156-.054688 79.945312-35.839844 80-80v-64c-.054688 44.160156-35.839844 79.945312-80 80zm0 0" fill="#2d2d30"/><g fill="#fff"><path d="m448 240h32v32h-32zm0 0"/><path d="m448 304h32v32h-32zm0 0"/></g></svg>